<svg xmlns="http://www.w3.org/2000/svg" viewBox="0 0 200 200" role="img" aria-label="Airlock logo">
  <title>Airlock</title>
  <defs>
    <linearGradient id="alBody" x1="0" y1="0" x2="0" y2="1">
      <stop offset="0%" stop-color="#2563EB" />
      <stop offset="100%" stop-color="#1E3A8A" />
    </linearGradient>
    <linearGradient id="alShackle" x1="0" y1="0" x2="0" y2="1">
      <stop offset="0%" stop-color="#E2E8F0" />
      <stop offset="100%" stop-color="#64748B" />
    </linearGradient>
  </defs>

  <path
    d="M 65 95 L 65 65 a 35 35 0 0 1 70 0 L 135 95"
    fill="none"
    stroke="url(#alShackle)"
    stroke-width="14"
    stroke-linecap="round"
  />

  <rect x="30" y="90" width="140" height="100" rx="10" fill="url(#alBody)" stroke="#0F172A" stroke-width="2" />

  <rect x="38" y="100" width="124" height="44" rx="3" fill="#0F172A" opacity="0.25" />

  <g fill="#60A5FA" stroke="#0F172A" stroke-width="1.2">
    <rect x="42" y="104" width="28" height="16" rx="2" />
    <rect x="72" y="104" width="28" height="16" rx="2" />
    <rect x="102" y="104" width="28" height="16" rx="2" />
    <rect x="132" y="104" width="28" height="16" rx="2" />
    <rect x="57" y="124" width="28" height="16" rx="2" />
    <rect x="87" y="124" width="28" height="16" rx="2" />
    <rect x="117" y="124" width="28" height="16" rx="2" />
  </g>

  <g stroke="#1E3A8A" stroke-width="0.8" opacity="0.7">
    <line x1="48" y1="108" x2="48" y2="116" />
    <line x1="56" y1="108" x2="56" y2="116" />
    <line x1="64" y1="108" x2="64" y2="116" />
    <line x1="78" y1="108" x2="78" y2="116" />
    <line x1="86" y1="108" x2="86" y2="116" />
    <line x1="94" y1="108" x2="94" y2="116" />
    <line x1="108" y1="108" x2="108" y2="116" />
    <line x1="116" y1="108" x2="116" y2="116" />
    <line x1="124" y1="108" x2="124" y2="116" />
    <line x1="138" y1="108" x2="138" y2="116" />
    <line x1="146" y1="108" x2="146" y2="116" />
    <line x1="154" y1="108" x2="154" y2="116" />
    <line x1="63" y1="128" x2="63" y2="136" />
    <line x1="71" y1="128" x2="71" y2="136" />
    <line x1="79" y1="128" x2="79" y2="136" />
    <line x1="93" y1="128" x2="93" y2="136" />
    <line x1="101" y1="128" x2="101" y2="136" />
    <line x1="109" y1="128" x2="109" y2="136" />
    <line x1="123" y1="128" x2="123" y2="136" />
    <line x1="131" y1="128" x2="131" y2="136" />
    <line x1="139" y1="128" x2="139" y2="136" />
  </g>

  <g transform="translate(100 168)">
    <circle r="12" fill="#0F172A" stroke="#60A5FA" stroke-width="2" />
    <circle r="5" fill="#60A5FA" />
    <rect x="-2.5" y="2" width="5" height="10" rx="1.2" fill="#60A5FA" />
  </g>
</svg>
